<svg xmlns="http://www.w3.org/2000/svg" viewBox="0 0 512 512"><title>StreamLine</title><polygon points="157 210.77 157 205.15 161.53 202.17 270.94 231.09 276.11 238.54 285.85 235.68 336.25 246.84 332.99 250.66 286.42 239.68 276.4 245.13 268.61 236.46 157 210.77"/><polygon points="17.51 71.41 497.85 68.11 492.89 436.21 22.46 444.46 17.51 71.41"/><polygon points="458.78 103.74 334.53 194.79 275.55 227.19 161.54 194.64 152.98 202.51 150.59 206.95 129.02 229.55 121.83 256.26 123.89 285.37 128.68 298.38 114.98 313.1 104.02 327.83 95.46 347 89.98 361.05 88.27 374.06 86.9 389.47 88.61 404.57 108.82 407 132.87 407 159.84 404.07 187.92 399.85 247.16 388.5 356.7 368.24 458.78 103.74" style="fill:#fff;stroke:#000;stroke-miterlimit:10;stroke-width:4px"/><polygon points="67.09 400.76 63.3 384.91 65.19 373.71 65.28 357.51 69.43 345.56 73.39 324.36 86.82 305.47 111 298.2 111 294.62 104.63 279.48 102.31 252.56 114.3 221.44 134.68 206.91 146.24 202.94 153.56 196.77 160.1 202.93 197.67 217.2 204.32 253.35 228.45 261.65 231.44 271.97 213.47 297.6 148.89 357.85 128.26 386.15 128.68 399.4 132.1 412 106.58 412 86.9 409.09 67.09 400.76" style="fill:#fff;stroke:#000;stroke-miterlimit:10;stroke-width:4px"/><polygon points="135.2 213.13 150.64 206.91 167.4 210.69 181.09 226.11 189.98 252.83 177.31 282.68 152.65 299.18 122.68 300.41 115.32 293.05 109.16 279.73 106.54 252.68 117.73 225.85 135.2 213.13"/><polygon points="71.31 399.23 88.52 404.43 86.86 389.51 88.25 374.08 89.97 361.06 95.46 347.01 104.02 327.83 114.98 313.11 128.68 298.38 125.59 296.18 91.01 311.05 79.03 328.51 73.14 346.66 70 359.68 70 375.09 68.88 385.36 71.31 399.23"/><polygon points="121.21 244.58 127.5 249.07 127.5 256.38 125.06 264.5 118.53 264.5 114.3 257.91 116.45 249.89 121.21 244.58" style="fill:#fff;stroke:#000;stroke-miterlimit:10"/><polygon points="132.1 390.49 139.98 375.77 159.16 360.02 168.06 346.32 186.21 328.17 218.16 300.6 233.49 277.47 339.18 294.49 358.76 316.65 347.94 346.04 353.61 362.54 173.88 398.03 133.82 402.82 132.1 390.49"/><path d="M164.29,296.67l16.44,3.93,11-10.44,23.29-24,126.36,21.92,29.81,27L444.86,128,343,263.95l-17.12,3.61-63.69-10.62-17.46,2.4s-24.08-5.36-23.85-5.08S203,248.73,203,248.73l-11-9.93,2.74,15.47-12.33,29.39Z"/><polygon points="181.89 374.27 156.55 378.54 118.49 380.5 86.66 380.5 71.22 375.2 63.5 370.99 63.5 367.12 71.3 370.6 88.33 374.08 118.92 375.23 156.67 374.84 181.89 374.27" style="fill:#fff;stroke:#000;stroke-miterlimit:10"/><polygon points="188.75 360.2 165.95 364.82 120.83 365.79 91.14 364.53 72.77 362.56 62.5 359.04 62.5 355.96 74.23 359.43 92.7 360.77 121.96 362.5 167.13 362.5 188.75 360.2" style="fill:#fff;stroke:#000;stroke-miterlimit:10"/><polygon points="209.26 345.28 172.74 350.2 124.66 350.5 93.83 350.5 79.17 349.65 64.91 346.25 67.23 341.66 80.72 347.07 95.46 347 123.5 347.09 172.84 346.32 209.26 345.28" style="fill:#fff;stroke:#000;stroke-miterlimit:10"/><polygon points="254.16 329.75 195.55 330.58 166.66 329.01 107.69 329.76 94.2 330.14 74.69 330.91 67.5 331.68 67.5 328.08 75.5 327.44 94.3 325.89 108.51 325.51 169 324.35 196.36 326.28 254.16 329.75" style="fill:#fff;stroke:#000;stroke-miterlimit:10"/><polygon points="414.55 183.88 337.14 199.82 288.03 232.62 340 244.99 340 281.6 367.42 308.92 414.55 183.88"/><path d="M250.42,402.58a5.31,5.31,0,0,0-2.54-2.21,8.82,8.82,0,0,0-3.57-.67A10,10,0,0,0,242,400a7,7,0,0,0-2.06.86,5.43,5.43,0,0,0-1.59,1.51,4.67,4.67,0,0,0-.79,2.18,3,3,0,0,0,.92,2.88,10.4,10.4,0,0,0,3,1.7q1.87,0.72,4.05,1.38a15.51,15.51,0,0,1,4,1.85,8.36,8.36,0,0,1,2.86,3.17,8.84,8.84,0,0,1,.6,5.29,12.78,12.78,0,0,1-5.24,9A15.16,15.16,0,0,1,243.2,432a19.19,19.19,0,0,1-5.29.78,18.18,18.18,0,0,1-6.51-1.09,10.63,10.63,0,0,1-5-3.83L232,423a7.12,7.12,0,0,0,2.83,2.83,8,8,0,0,0,4,1,9,9,0,0,0,2.33-.34,8.24,8.24,0,0,0,2.19-1,6.39,6.39,0,0,0,1.74-1.62,5,5,0,0,0,.92-2.24,3.48,3.48,0,0,0-.92-3.14,9.54,9.54,0,0,0-3-1.83q-1.87-.74-4-1.4a15.51,15.51,0,0,1-4-1.82,8.5,8.5,0,0,1-2.86-3.12,8.59,8.59,0,0,1-.63-5.26,11.4,11.4,0,0,1,1.84-5,13.1,13.1,0,0,1,3.56-3.52,16,16,0,0,1,4.67-2.12,20.05,20.05,0,0,1,5.13-.73,17.42,17.42,0,0,1,5.59.84,10.37,10.37,0,0,1,4.51,2.9Z" style="fill:#fff"/><path d="M257.59,411.85l0.68-5.35,5.19,0,0.93-7.3,6.29-.06-0.93,7.29,6.92-.06L276,411.68l-6.92.06-1.47,11a5.14,5.14,0,0,0,.32,3q0.56,1.1,2.66,1.08a10.48,10.48,0,0,0,1.86-.2,4.32,4.32,0,0,0,1.65-.62l-0.68,5.3a8.87,8.87,0,0,1-2.51.68,21.14,21.14,0,0,1-2.57.21,12.14,12.14,0,0,1-4-.51A4.47,4.47,0,0,1,262,430a5.54,5.54,0,0,1-.89-2.8,19.34,19.34,0,0,1,.17-3.88l1.52-11.55Z" style="fill:#fff"/><path d="M281.6,406.28l6.29-.06-0.54,4h0.1a9.71,9.71,0,0,1,3.46-3.44,9.24,9.24,0,0,1,4.63-1.25,5.68,5.68,0,0,1,1.1.09c0.35,0.07.72,0.15,1.1,0.25L296.91,412c-0.49-.13-1-0.24-1.47-0.33a8.38,8.38,0,0,0-1.47-.12,7.5,7.5,0,0,0-3.66.85,8,8,0,0,0-2.32,1.88,6.91,6.91,0,0,0-1.21,2.11,7.63,7.63,0,0,0-.41,1.58l-1.76,13.49-6.29.06Z" style="fill:#fff"/><path d="M304.12,420.85a6,6,0,0,0,.42,2.51,5.3,5.3,0,0,0,1.25,1.85,5.49,5.49,0,0,0,1.9,1.16,6.71,6.71,0,0,0,2.42.4,8.37,8.37,0,0,0,4.11-1,12.42,12.42,0,0,0,3.1-2.46l4.07,3.37A15.43,15.43,0,0,1,316,430.6a15.7,15.7,0,0,1-5.86,1.21,14.06,14.06,0,0,1-5.22-.9,10.67,10.67,0,0,1-4-2.64,10.48,10.48,0,0,1-2.37-4.15,12.59,12.59,0,0,1-.36-5.42,14.77,14.77,0,0,1,1.78-5.44,15.35,15.35,0,0,1,3.47-4.2,15.63,15.63,0,0,1,4.72-2.72,16.23,16.23,0,0,1,5.47-1q5.29,0,8.05,3.46t1.93,10.13l-0.25,1.73ZM317.65,416a5.16,5.16,0,0,0-1.14-4.37,5.76,5.76,0,0,0-4.47-1.56,7,7,0,0,0-4.7,1.67,8.48,8.48,0,0,0-2.58,4.38Z" style="fill:#fff"/><path d="M344,427.41h-0.16a10,10,0,0,1-3.88,3.16,12.05,12.05,0,0,1-8.07.57,7.76,7.76,0,0,1-2.77-1.39,5.86,5.86,0,0,1-1.75-2.34,6.33,6.33,0,0,1-.34-3.3,7.89,7.89,0,0,1,2.21-4.82,12,12,0,0,1,4.33-2.69,20.49,20.49,0,0,1,5.31-1.15q2.8-.24,5.16-0.26h1.57l0-.68a3.52,3.52,0,0,0-1.13-3.53,6.18,6.18,0,0,0-4-1.14,10.53,10.53,0,0,0-3.82.74,11.15,11.15,0,0,0-3.23,1.94l-2.86-3.28a14.25,14.25,0,0,1,5.29-3.14,19.53,19.53,0,0,1,5.94-1,13.84,13.84,0,0,1,4.43.56,8.37,8.37,0,0,1,2.84,1.52,5.49,5.49,0,0,1,1.57,2.16,9.09,9.09,0,0,1,.6,2.49,12.69,12.69,0,0,1,0,2.44q-0.12,1.18-.22,2.07l-1.86,14.49-5.66.05Zm0.66-7.82h-1.31q-1.31,0-3,.13a16.42,16.42,0,0,0-3.14.53,8.23,8.23,0,0,0-2.58,1.18,3,3,0,0,0-1.29,2.14,2.53,2.53,0,0,0,.22,1.49,2.92,2.92,0,0,0,.9,1,3.73,3.73,0,0,0,1.32.59,6.28,6.28,0,0,0,1.52.17,7.45,7.45,0,0,0,5-1.59,6.55,6.55,0,0,0,2.11-4.24Z" style="fill:#fff"/><path d="M359,405.56l6-.05-0.54,3.94h0.1a10.54,10.54,0,0,1,3.14-3.2,9.17,9.17,0,0,1,5.2-1.44q5.92-.05,7.23,4.6a11.16,11.16,0,0,1,3.9-3.58,10.89,10.89,0,0,1,5-1.17,8.84,8.84,0,0,1,4.12.8,6,6,0,0,1,2.49,2.28,8.44,8.44,0,0,1,1.11,3.42,17.29,17.29,0,0,1-.07,4.22l-2,15-6.29.06,1.86-14.28a12.17,12.17,0,0,0,.08-2.23,4.56,4.56,0,0,0-.49-1.88,3.09,3.09,0,0,0-1.27-1.27,4.6,4.6,0,0,0-2.26-.45A5.52,5.52,0,0,0,382,412.4a7.77,7.77,0,0,0-1.21,2.11,9.83,9.83,0,0,0-.61,2.39l-1.76,13.65-6.29.06,2-15a5.82,5.82,0,0,0-.53-3.74,3.3,3.3,0,0,0-3.13-1.36,6.53,6.53,0,0,0-2.72.55,6,6,0,0,0-2,1.43,7.33,7.33,0,0,0-1.29,2.06,8.79,8.79,0,0,0-.63,2.42L362,430.7l-6.29.06Z" style="fill:#fff"/><path d="M406.92,390.65l6.29-.06L408,430.27l-6.29.06Z" style="fill:#fff"/><path d="M418.69,405L425,405l-3.28,25.2-6.29.06Zm0.24-8.55a4.23,4.23,0,0,1,1.47-2.66,4.43,4.43,0,0,1,3-1.15,3.7,3.7,0,0,1,2.79,1,3,3,0,0,1,.81,2.69,4.29,4.29,0,0,1-1.55,2.71,4.66,4.66,0,0,1-3,1.1,3.37,3.37,0,0,1-2.71-1.1A3.21,3.21,0,0,1,418.92,396.46Z" style="fill:#fff"/><path d="M432.21,404.88l6-.06-0.54,4h0.1a10.73,10.73,0,0,1,3.17-3.31,9,9,0,0,1,5.18-1.44,9.17,9.17,0,0,1,4.18.8,6.44,6.44,0,0,1,2.56,2.18,7.22,7.22,0,0,1,1.13,3.13,14.81,14.81,0,0,1,0,3.72l-2.05,15.91-6.29.06,1.67-12.76a22.29,22.29,0,0,0,.19-2.33,8.38,8.38,0,0,0-.26-2.41,3.75,3.75,0,0,0-1.14-1.88,3.56,3.56,0,0,0-2.47-.74,6.53,6.53,0,0,0-2.72.55,6,6,0,0,0-2,1.43,7.25,7.25,0,0,0-1.29,2.06,8.79,8.79,0,0,0-.63,2.42L435.22,430l-6.29.06Z" style="fill:#fff"/><path d="M465.38,419.36a6,6,0,0,0,.42,2.51,5.3,5.3,0,0,0,1.25,1.85,5.51,5.51,0,0,0,1.9,1.16,6.71,6.71,0,0,0,2.42.4,8.38,8.38,0,0,0,4.11-1,12.42,12.42,0,0,0,3.1-2.47l4.07,3.37a15.44,15.44,0,0,1-5.42,3.93,15.68,15.68,0,0,1-5.86,1.21,14.06,14.06,0,0,1-5.23-.89,10.68,10.68,0,0,1-4-2.64,10.48,10.48,0,0,1-2.37-4.14,12.57,12.57,0,0,1-.37-5.42,14.76,14.76,0,0,1,1.79-5.44,15.3,15.3,0,0,1,3.47-4.2,15.63,15.63,0,0,1,4.72-2.72,16.2,16.2,0,0,1,5.47-1q5.3,0,8.05,3.46t1.93,10.13l-0.25,1.73Zm13.53-4.84a5.16,5.16,0,0,0-1.14-4.37,5.76,5.76,0,0,0-4.47-1.56,7,7,0,0,0-4.7,1.67,8.48,8.48,0,0,0-2.58,4.38Z" style="fill:#fff"/></svg>